<?xml version="1.0" encoding="UTF-8" standalone="no"?>
<svg
   width="128"
   height="128"
   data-name="Layer 1"
   id="Layer_1"
   viewBox="0 0 128 128"
   version="1.1"
   sodipodi:docname="logo.svg"
   inkscape:version="1.4.2 (ebf0e940d0, 2025-05-08)"
   xmlns:inkscape="http://www.inkscape.org/namespaces/inkscape"
   xmlns:sodipodi="http://sodipodi.sourceforge.net/DTD/sodipodi-0.dtd"
   xmlns="http://www.w3.org/2000/svg"
   xmlns:svg="http://www.w3.org/2000/svg">
  <sodipodi:namedview
     id="namedview15"
     pagecolor="#ffffff"
     bordercolor="#000000"
     borderopacity="0.25"
     inkscape:showpageshadow="2"
     inkscape:pageopacity="0.0"
     inkscape:pagecheckerboard="0"
     inkscape:deskcolor="#d1d1d1"
     inkscape:zoom="9.0078125"
     inkscape:cx="63.944493"
     inkscape:cy="64"
     inkscape:window-width="3440"
     inkscape:window-height="1371"
     inkscape:window-x="0"
     inkscape:window-y="0"
     inkscape:window-maximized="1"
     inkscape:current-layer="Layer_1" />
  <defs
     id="defs1">
    <style
       id="style1">.cls-1{fill:#f2bc0f;}.cls-2,.cls-8{fill:#fff;}.cls-2{opacity:0.3;}.cls-3{fill:#515570;}.cls-4{fill:#393c54;}.cls-5{fill:#ffd8c9;}.cls-10,.cls-12,.cls-6,.cls-7,.cls-9{fill:none;stroke-linecap:round;stroke-linejoin:round;stroke-width:2px;}.cls-6{stroke:#393c54;}.cls-10,.cls-7,.cls-9{stroke:#515570;}.cls-7{opacity:0.1;}.cls-9{opacity:0.4;}.cls-11{fill:#f8dc25;}.cls-12{stroke:#fbc0aa;}</style>
  </defs>
  <title
     id="title1" />
  <ellipse
     class="cls-1"
     cx="64"
     cy="64.000137"
     id="circle1"
     style="stroke-width:1.06667"
     rx="64"
     ry="64.000137" />
  <ellipse
     class="cls-2"
     cx="64"
     cy="64.000137"
     id="circle2"
     style="stroke-width:1.06667"
     rx="51.200001"
     ry="51.200108" />
  <path
     class="cls-3"
     d="m 64,128.10695 a 63.765333,63.765467 0 0 0 42.66667,-16.29871 l -2.54934,-6.05868 c -1.824,-4.26667 -6.63466,-7.082668 -12.042663,-7.082668 H 35.936 c -5.408,0 -10.218667,2.837328 -12.042667,7.082668 l -2.56,6.05868 A 63.765333,63.765467 0 0 0 64,128.10695 Z"
     id="path2"
     style="stroke-width:1.06667" />
  <path
     class="cls-4"
     d="m 97.33333,60.192134 c 0,4.67201 0.48,8.458685 -4.191997,8.458685 a 8.458667,8.4586848 0 1 1 0,-16.917369 c 4.671997,0 4.191997,3.786675 4.191997,8.458684 z"
     id="path3"
     style="stroke-width:1.06667" />
  <path
     class="cls-4"
     d="m 43.317333,60.192134 a 8.4586667,8.4586845 0 0 1 -8.458666,8.458685 c -4.672,0 -4.192,-3.786675 -4.192,-8.458685 0,-4.672009 -0.48,-8.458684 4.192,-8.458684 a 8.4586667,8.4586845 0 0 1 8.458666,8.458684 z"
     id="path4"
     style="stroke-width:1.06667" />
  <path
     class="cls-5"
     d="M 64,97.461542 A 30.197333,30.197396 0 0 1 33.792,67.253482 V 51.658784 c 0,-16.682702 13.525333,-27.008057 30.208,-27.008057 16.682667,0 30.208,10.325355 30.208,27.008057 V 67.253482 A 30.197333,30.197396 0 0 1 64,97.461542 Z"
     id="path5"
     style="stroke-width:1.06667" />
  <path
     class="cls-6"
     d="M 55.904,83.27485 A 0.97066667,0.97066871 0 0 1 56.8,82.133514 h 14.4 a 0.97066667,0.97066871 0 0 1 0.896,1.141336"
     id="path6" />
  <path
     class="cls-7"
     d="M 92.704,67.200149 A 14.229333,14.229363 0 0 0 80.096,81.429512 v 4.789344"
     id="path7" />
  <path
     class="cls-7"
     d="m 35.296,67.200149 a 14.229333,14.229363 0 0 1 12.608,14.229363 v 4.789344"
     id="path8" />
  <path
     class="cls-4"
     d="M 33.066667,67.765483 62.592,74.400164 a 6.5493333,6.5493471 0 0 0 2.805333,0 l 29.536,-6.634681 V 19.946717 A 1.0666667,1.0666689 0 0 0 93.226667,19.093381 L 82.56,27.040065 c 0,0 -6.528,-6.18668 -18.549333,-6.18668 a 29.685333,29.685395 0 0 0 -19.296,6.880014 l -9.888,-8.426683 a 1.0666667,1.0666689 0 0 0 -1.76,0.810667 z"
     id="path9"
     style="stroke-width:1.06667" />
  <path
     class="cls-8"
     d="m 44.938667,57.333461 10.4,2.400006 a 5.3333333,5.3333445 0 1 1 -10.4,-2.357338 z"
     id="path10"
     style="stroke-width:1.06667" />
  <ellipse
     class="cls-4"
     cx="50.133335"
     cy="58.688129"
     id="circle10"
     style="stroke-width:1.06667"
     rx="2.9013333"
     ry="2.9013395" />
  <line
     class="cls-9"
     x1="55.850666"
     x2="44.416"
     y1="59.808132"
     y2="57.20546"
     id="line10" />
  <line
     class="cls-10"
     x1="55.850666"
     x2="44.416"
     y1="58.741463"
     y2="56.138794"
     id="line11" />
  <path
     class="cls-11"
     d="m 78.933333,115.00825 a 0.53333333,0.53333445 0 0 0 -0.277333,-0.992 h -8.629333 a 0.74666667,0.74666824 0 0 0 -0.693334,0.45867 v 0 a 3.36,3.3600071 0 0 1 -2.453333,2.016 l -1.066667,0.22401 a 0.384,0.38400081 0 0 1 -0.458666,-0.30935 l -0.288,-1.504 a 0.08533333,0.08533351 0 0 0 -0.16,0 l -0.298667,0.704 a 2.528,2.5280053 0 0 0 -1.130667,0 l -0.298666,-0.704 a 0.08533333,0.08533351 0 0 0 -0.16,0 l -0.288,1.504 A 0.384,0.38400081 0 0 1 62.272,116.71493 l -1.066667,-0.22401 a 3.36,3.3600071 0 0 1 -2.453333,-2.016 v 0 a 0.74666667,0.74666824 0 0 0 -0.693333,-0.45867 H 49.376 a 0.53333333,0.53333445 0 0 0 -0.277333,0.992 6.048,6.0480127 0 0 1 3.04,5.03468 0.52266667,0.52266777 0 0 0 0.597333,0.52266 14.154667,14.154697 0 0 1 6.282667,0.49067 9.8026667,9.8026873 0 0 1 4.544,3.63734 0.53333333,0.53333445 0 0 0 0.874666,0 9.8026667,9.8026873 0 0 1 4.544,-3.63734 14.154667,14.154697 0 0 1 6.282667,-0.49067 0.52266667,0.52266777 0 0 0 0.597333,-0.52266 6.048,6.0480127 0 0 1 3.072,-5.03468 z"
     id="path11"
     style="stroke-width:1.06667" />
  <path
     class="cls-8"
     d="m 83.061333,57.333461 -10.4,2.400006 a 5.3333333,5.3333445 0 1 0 10.4,-2.357338 z"
     id="path12"
     style="stroke-width:1.06667" />
  <ellipse
     class="cls-4"
     cx="77.930664"
     cy="58.67746"
     id="circle12"
     style="stroke-width:1.06667"
     rx="2.8053334"
     ry="2.8053393" />
  <line
     class="cls-9"
     x1="72.14933"
     x2="83.584"
     y1="59.808132"
     y2="57.20546"
     id="line12" />
  <line
     class="cls-10"
     x1="72.14933"
     x2="83.584"
     y1="58.741463"
     y2="56.138794"
     id="line13" />
  <path
     class="cls-4"
     d="M 94.933333,98.666892 V 67.200149 L 89.6,68.650819 86.666667,81.76018 A 16.853333,16.853368 0 0 1 78.784,92.597536 l -2.282667,0.992002 a 31.210667,31.210733 0 0 1 -25.002666,0 L 49.216,92.597536 A 16.853333,16.853368 0 0 1 41.333333,81.76018 L 38.4,68.650819 33.066667,67.200149 v 31.466743 l -17.557334,7.082668 1.461334,1.65335 A 64.224,64.224135 0 0 0 35.36,121.26959 L 56,107.40291 a 14.933333,14.933364 0 0 1 8,-2.33601 17.461333,17.46137 0 0 1 8,1.93066 l 20.661333,14.22937 a 64.416,64.416135 0 0 0 18.133337,-13.56802 c 0.59733,-0.65068 1.17333,-1.29068 1.71733,-1.90935 z"
     id="path13"
     style="stroke-width:1.06667" />
  <path
     class="cls-12"
     d="m 59.733333,91.733534 a 7.4666667,7.4666824 0 0 1 8.533334,0"
     id="path14" />
  <path
     class="cls-3"
     d="m 64,63.061474 v 8.757352 a 0.544,0.54400114 0 0 1 -0.672,0.522667 L 59.466667,71.274825 A 0.544,0.54400114 0 0 1 59.136,70.517489 l 3.850667,-7.712016 A 0.53333333,0.53333445 0 0 1 64,63.061474 Z"
     id="path15"
     style="stroke-width:1.06667" />
</svg>
